HIERARCHY
ROOT Hips
{
    OFFSET 0.000000 0.000000 0.000000
    CHANNELS 6 Xposition Yposition Zposition Zrotation Xrotation Yrotation
    JOINT Spine
    {
        OFFSET -0.000000 14.517291 0.000000
        CHANNELS 3 Zrotation Xrotation Yrotation
        JOINT Spine1
        {
            OFFSET -0.000000 37.558300 0.000000
            CHANNELS 3 Zrotation Xrotation Yrotation
            JOINT Neck
            {
                OFFSET -0.000000 37.404057 3.400369
                CHANNELS 3 Zrotation Xrotation Yrotation
                JOINT Head
                {
                    OFFSET -0.000000 24.785618 -3.540803
                    CHANNELS 3 Zrotation Xrotation Yrotation
                    End Site
                    {
                        OFFSET -0.000000 35.408028 0.000000
                    }
                }
            }
            JOINT LeftShoulder
            {
                OFFSET 6.992933 33.973492 -0.192664
                CHANNELS 3 Zrotation Xrotation Yrotation
                JOINT LeftArm
                {
                    OFFSET 21.527611 0.000000 0.000000
                    CHANNELS 3 Zrotation Xrotation Yrotation
                    JOINT LeftForeArm
                    {
                        OFFSET 56.353916 0.000000 0.000000
                        CHANNELS 3 Zrotation Xrotation Yrotation
                        JOINT LeftHand
                        {
                            OFFSET 47.774071 0.000000 0.000000
                            CHANNELS 3 Zrotation Xrotation Yrotation
                            End Site
                            {
                                OFFSET 26.556021 0.000000 0.000000
                            }
                        }
                    }
                }
            }
            JOINT RightShoulder
            {
                OFFSET -7.065357 33.973492 -0.192664
                CHANNELS 3 Zrotation Xrotation Yrotation
                JOINT RightArm
                {
                    OFFSET -21.527611 0.000000 0.000000
                    CHANNELS 3 Zrotation Xrotation Yrotation
                    JOINT RightForeArm
                    {
                        OFFSET -56.353916 0.000000 0.000000
                        CHANNELS 3 Zrotation Xrotation Yrotation
                        JOINT RightHand
                        {
                            OFFSET -47.774071 0.000000 0.000000
                            CHANNELS 3 Zrotation Xrotation Yrotation
                            End Site
                            {
                                OFFSET -26.556021 0.000000 0.000000
                            }
                        }
                    }
                }
            }
        }
    }
    JOINT LeftUpLeg
    {
        OFFSET 17.704014 0.000000 0.000000
        CHANNELS 3 Zrotation Xrotation Yrotation
        JOINT LeftLeg
        {
            OFFSET -0.000000 -81.181816 0.000000
            CHANNELS 3 Zrotation Xrotation Yrotation
            JOINT LeftFoot
            {
                OFFSET -0.000000 -62.821102 0.000000
                CHANNELS 3 Zrotation Xrotation Yrotation
                JOINT LeftToeBase
                {
                    OFFSET -0.000000 -11.507608 26.556021
                    CHANNELS 3 Zrotation Xrotation Yrotation
                    End Site
                    {
                        OFFSET -0.000000 0.000000 7.081605
                    }
                }
            }
        }
    }
    JOINT RightUpLeg
    {
        OFFSET -17.704014 0.000000 0.000000
        CHANNELS 3 Zrotation Xrotation Yrotation
        JOINT RightLeg
        {
            OFFSET -0.000000 -81.181816 0.000000
            CHANNELS 3 Zrotation Xrotation Yrotation
            JOINT RightFoot
            {
                OFFSET -0.000000 -62.821102 0.000000
                CHANNELS 3 Zrotation Xrotation Yrotation
                JOINT RightToeBase
                {
                    OFFSET -0.000000 -11.507608 26.556021
                    CHANNELS 3 Zrotation Xrotation Yrotation
                    End Site
                    {
                        OFFSET -0.000000 0.000000 7.081605
                    }
                }
            }
        }
    }
}
MOTION
Frames:    6
Frame Time:    0.008333
-11.336448    150.109177    -101.589394    1.607270    -5.210646    45.457001    -2.236474    0.454535    0.732159    -0.064241    2.000318    0.241975    -2.020968    5.708913    -19.280533    16.363682    1.030222    -17.784016    3.252936    7.994086    -14.169873    -34.535889    22.510513    -52.110870    0.490842    -32.538445    -117.205582    -10.019090    -30.785521    -14.279732    0.683584    9.574454    -5.118413    35.585793    -0.720732    42.162231    -24.308764    -28.232277    69.029678    -16.217117    -15.170666    20.810785    16.284266    -6.027829    -6.847263    -21.437531    45.996273    -18.568653    11.125480    -33.237659    54.186089    0.000000    0.000000    0.000000    -25.826349    -16.998549    -27.013382    10.443220    29.889166    -17.573809    5.516126    6.970130    -6.460865    0.000000    0.000000    0.000000    
-11.338448    150.117630    -101.606224    1.617732    -5.209821    45.453556    -2.241383    0.452188    0.732261    -0.053241    2.007431    0.241937    -2.047182    5.694057    -19.299492    16.397932    1.055896    -17.800388    3.240534    7.989737    -14.160819    -34.532112    22.538771    -52.114677    0.487508    -32.523952    -117.207359    -9.992087    -30.780273    -14.256203    0.674315    9.630317    -5.111979    35.532124    -0.589877    42.205273    -23.826250    -27.460867    68.960533    -16.214355    -14.733327    21.108227    16.272165    -6.013595    -6.823187    -21.403534    45.982300    -18.609299    11.130055    -33.221329    54.181595    0.000000    0.000000    0.000000    -25.830851    -16.991039    -26.985922    10.452705    29.863144    -17.570234    5.522744    6.990613    -6.496987    0.000000    0.000000    0.000000    
-11.339914    150.127411    -101.617157    1.625534    -5.209429    45.456741    -2.243489    0.429371    0.730169    -0.046808    2.036935    0.241381    -2.050166    5.687590    -19.315231    16.405851    1.057706    -17.815783    3.240035    7.983932    -14.165526    -34.536648    22.555151    -52.105675    0.466019    -32.505398    -117.222382    -9.997602    -30.792049    -14.237805    0.669226    9.670338    -5.100410    35.460377    -0.409531    42.236835    -23.439806    -26.728804    68.823830    -16.283701    -14.287574    21.265293    16.265753    -6.001222    -6.818458    -21.396946    45.958755    -18.628132    11.130234    -33.213509    54.188362    0.000000    0.000000    0.000000    -25.830328    -16.978552    -26.993416    10.434655    29.840946    -17.557570    5.531100    7.007287    -6.487092    0.000000    0.000000    0.000000    
-11.340031    150.138229    -101.631927    1.637166    -5.206891    45.455929    -2.250878    0.419208    0.731771    -0.042042    2.051012    0.241849    -2.060246    5.693750    -19.336327    16.444046    1.051453    -17.831322    3.241064    7.979239    -14.157799    -34.549873    22.562275    -52.103878    0.441052    -32.450356    -117.235985    -9.969852    -30.775860    -14.214850    0.671411    9.704349    -5.076799    35.383064    -0.240206    42.250515    -23.055595    -25.986521    68.658401    -16.424198    -13.865296    21.503878    16.254025    -5.985022    -6.814145    -21.386507    45.928520    -18.637163    11.121799    -33.199432    54.173916    0.000000    0.000000    0.000000    -25.833305    -16.967293    -26.969013    10.441594    29.811548    -17.563063    5.530945    7.021180    -6.515534    0.000000    0.000000    0.000000    
-11.339005    150.151611    -101.644073    1.647742    -5.206118    45.461189    -2.259200    0.414207    0.735710    -0.031134    2.052089    0.242817    -2.059358    5.675417    -19.351643    16.444975    1.075480    -17.850508    3.237427    7.980864    -14.158142    -34.547821    22.584557    -52.107410    0.427537    -32.432098    -117.249084    -9.947252    -30.781561    -14.173050    0.668948    9.730349    -5.053340    35.317768    -0.083249    42.233036    -22.678389    -25.205675    68.492722    -16.552954    -13.409487    21.827030    16.245136    -5.970518    -6.817338    -21.388313    45.898903    -18.629559    11.130298    -33.170547    54.165596    0.000000    0.000000    0.000000    -25.832890    -16.949257    -26.955631    10.435118    29.776123    -17.591881    5.530087    7.054128    -6.497854    0.000000    0.000000    0.000000    
-11.336706    150.163010    -101.648117    1.663122    -5.207762    45.468639    -2.276690    0.398470    0.740992    -0.014902    2.073453    0.244433    -2.087456    5.679960    -19.367386    16.505821    1.075255    -17.856567    3.241911    7.985687    -14.149588    -34.535454    22.602852    -52.127525    0.420399    -32.421604    -117.249184    -9.959558    -30.779058    -14.180323    0.671375    9.769280    -5.044748    35.243916    0.050970    42.242447    -22.267735    -24.385603    68.323891    -16.807583    -12.947605    22.044949    16.234884    -5.948928    -6.817548    -21.367327    45.876915    -18.671000    11.115403    -33.169945    54.161724    0.000000    0.000000    0.000000    -25.829102    -16.923771    -26.959946    10.418853    29.745884    -17.594481    5.517588    7.058925    -6.482841    0.000000    0.000000    0.000000    
